# xmcd CD database file
#
# Track frame offsets:
#	150
#	12745
#	25153
#	39443
#	51955
#	74978
#	100394
#	126180
#	173673
#	197259
#	217490
#	246075
#	259610
#	283281
#	306832
#	341139
#
# Disc length: 4727 seconds
#
# Revision: 0
# Processed by: cddbd v1.5.2PL0 Copyright (c) Steve Scherf et al.
# Submitted via: CDex 1.70beta2
#
DISCID=fe127510
DTITLE=Thelonious Monk - Jazz Roads - Bebop CD350 - Thelonious Monk Vol.3 (1952-54)
DYEAR=2008
DGENRE=Jazz
TTITLE0=Thelonious Monk Trio - Trinkle Tinkle
TTITLE1=Thelonious Monk Trio - These Foolish Things
TTITLE2=Thelonious Monk Trio - Bemsha Swing
TTITLE3=Thelonious Monk Trio - Reflections
TTITLE4=Thelonious Monk Quintet - Let's Call This
TTITLE5=Thelonious Monk Quintet - Think Of One (1)
TTITLE6=Thelonious Monk Quintet - Think Of One (2)
TTITLE7=Thelonious Monk Quintet - Friday The Thirteenth
TTITLE8=Thelonious Monk Quintet - We See
TTITLE9=Thelonious Monk Quintet - Smoke Gets In Your Eyes
TTITLE10=Thelonious Monk Quintet - Locomotive
TTITLE11=Thelonious Monk Quintet - Hackensack
TTITLE12=Thelonious Monk Trio - Work
TTITLE13=Thelonious Monk Trio - Nutty
TTITLE14=Thelonious Monk Trio - Blue Monk
TTITLE15=Thelonious Monk Trio - Just A Gigolo
EXTD=YEAR: 2008
EXTT0=
EXTT1=
EXTT2=
EXTT3=
EXTT4=
EXTT5=
EXTT6=
EXTT7=
EXTT8=
EXTT9=
EXTT10=
EXTT11=
EXTT12=
EXTT13=
EXTT14=
EXTT15=
PLAYORDER=
